<mxfile host="app.diagrams.net" modified="2023-06-04T22:56:21.464Z" agent="Mozilla/5.0 (Windows NT 10.0; Win64; x64) AppleWebKit/537.36 (KHTML, like Gecko) Chrome/114.0.0.0 Safari/537.36" etag="g1nh1oz49BkL7CKUzVtX" version="21.3.7" type="device">
  <diagram id="C5RBs43oDa-KdzZeNtuy" name="Page-1">
    <mxGraphModel dx="2127" dy="1890" grid="1" gridSize="10" guides="1" tooltips="1" connect="1" arrows="1" fold="1" page="1" pageScale="1" pageWidth="827" pageHeight="1169" math="0" shadow="0">
      <root>
        <mxCell id="WIyWlLk6GJQsqaUBKTNV-0" />
        <mxCell id="WIyWlLk6GJQsqaUBKTNV-1" parent="WIyWlLk6GJQsqaUBKTNV-0" />
        <mxCell id="vRHnc0UXpG35BtiOM5nM-2" value="" style="rounded=0;whiteSpace=wrap;html=1;" parent="WIyWlLk6GJQsqaUBKTNV-1" vertex="1">
          <mxGeometry x="-80" y="-280" width="390" height="750" as="geometry" />
        </mxCell>
        <mxCell id="vRHnc0UXpG35BtiOM5nM-1" value="" style="rounded=0;whiteSpace=wrap;html=1;" parent="WIyWlLk6GJQsqaUBKTNV-1" vertex="1">
          <mxGeometry x="390" y="-270" width="810" height="1060" as="geometry" />
        </mxCell>
        <mxCell id="vRHnc0UXpG35BtiOM5nM-3" value="&lt;b&gt;Get the number of days of the visit&lt;/b&gt;" style="rounded=0;whiteSpace=wrap;html=1;fillColor=#fff2cc;strokeColor=#d6b656;" parent="WIyWlLk6GJQsqaUBKTNV-1" vertex="1">
          <mxGeometry x="90" y="-230" width="160" height="40" as="geometry" />
        </mxCell>
        <mxCell id="vRHnc0UXpG35BtiOM5nM-4" value="&lt;font style=&quot;font-size: 18px;&quot;&gt;Generate a tour across multiple days&lt;/font&gt;" style="text;html=1;strokeColor=none;fillColor=none;align=center;verticalAlign=middle;whiteSpace=wrap;rounded=0;" parent="WIyWlLk6GJQsqaUBKTNV-1" vertex="1">
          <mxGeometry x="-60" y="-270" width="300" height="30" as="geometry" />
        </mxCell>
        <mxCell id="vRHnc0UXpG35BtiOM5nM-7" value="&lt;b&gt;Pick a cardinal direction&lt;/b&gt;" style="rounded=0;whiteSpace=wrap;html=1;fillColor=#f5f5f5;strokeColor=#666666;fontColor=#333333;" parent="WIyWlLk6GJQsqaUBKTNV-1" vertex="1">
          <mxGeometry x="90" y="-100" width="160" height="60" as="geometry" />
        </mxCell>
        <mxCell id="vRHnc0UXpG35BtiOM5nM-8" value="&lt;b&gt;Generate a trip of sites in that direction for that day&lt;/b&gt;" style="rounded=0;whiteSpace=wrap;html=1;fillColor=#dae8fc;strokeColor=#6c8ebf;" parent="WIyWlLk6GJQsqaUBKTNV-1" vertex="1">
          <mxGeometry x="90" y="65" width="160" height="60" as="geometry" />
        </mxCell>
        <mxCell id="vRHnc0UXpG35BtiOM5nM-11" value="" style="endArrow=classic;html=1;rounded=0;exitX=0.5;exitY=1;exitDx=0;exitDy=0;entryX=0.5;entryY=0;entryDx=0;entryDy=0;" parent="WIyWlLk6GJQsqaUBKTNV-1" source="vRHnc0UXpG35BtiOM5nM-16" edge="1">
          <mxGeometry width="50" height="50" relative="1" as="geometry">
            <mxPoint x="130" y="100" as="sourcePoint" />
            <mxPoint x="170" y="-100" as="targetPoint" />
          </mxGeometry>
        </mxCell>
        <mxCell id="vRHnc0UXpG35BtiOM5nM-12" value="" style="endArrow=classic;html=1;rounded=0;exitX=0;exitY=0.5;exitDx=0;exitDy=0;entryX=0;entryY=0.5;entryDx=0;entryDy=0;" parent="WIyWlLk6GJQsqaUBKTNV-1" source="vRHnc0UXpG35BtiOM5nM-51" edge="1">
          <mxGeometry width="50" height="50" relative="1" as="geometry">
            <mxPoint x="130" y="100" as="sourcePoint" />
            <mxPoint x="90" y="-69.99999999999977" as="targetPoint" />
            <Array as="points">
              <mxPoint x="30" y="200" />
              <mxPoint x="30" y="-70" />
            </Array>
          </mxGeometry>
        </mxCell>
        <mxCell id="vRHnc0UXpG35BtiOM5nM-13" value="&lt;b&gt;Exclude sites already visited on other days&lt;/b&gt;" style="rounded=0;whiteSpace=wrap;html=1;fillColor=#f5f5f5;strokeColor=#666666;fontColor=#333333;" parent="WIyWlLk6GJQsqaUBKTNV-1" vertex="1">
          <mxGeometry x="90" y="-20" width="160" height="60" as="geometry" />
        </mxCell>
        <mxCell id="vRHnc0UXpG35BtiOM5nM-14" value="" style="endArrow=classic;html=1;rounded=0;exitX=0.5;exitY=1;exitDx=0;exitDy=0;entryX=0.5;entryY=0;entryDx=0;entryDy=0;" parent="WIyWlLk6GJQsqaUBKTNV-1" source="vRHnc0UXpG35BtiOM5nM-13" target="vRHnc0UXpG35BtiOM5nM-8" edge="1">
          <mxGeometry width="50" height="50" relative="1" as="geometry">
            <mxPoint x="180" y="60" as="sourcePoint" />
            <mxPoint x="180" y="80" as="targetPoint" />
          </mxGeometry>
        </mxCell>
        <mxCell id="vRHnc0UXpG35BtiOM5nM-15" value="&lt;font style=&quot;font-size: 18px;&quot;&gt;Generate a trip of sites&lt;/font&gt;" style="text;html=1;strokeColor=none;fillColor=none;align=center;verticalAlign=middle;whiteSpace=wrap;rounded=0;" parent="WIyWlLk6GJQsqaUBKTNV-1" vertex="1">
          <mxGeometry x="397.01" y="-260" width="194" height="30" as="geometry" />
        </mxCell>
        <mxCell id="vRHnc0UXpG35BtiOM5nM-17" value="" style="endArrow=classic;html=1;rounded=0;exitX=0.5;exitY=1;exitDx=0;exitDy=0;entryX=0.5;entryY=0;entryDx=0;entryDy=0;" parent="WIyWlLk6GJQsqaUBKTNV-1" source="vRHnc0UXpG35BtiOM5nM-3" target="vRHnc0UXpG35BtiOM5nM-16" edge="1">
          <mxGeometry width="50" height="50" relative="1" as="geometry">
            <mxPoint x="170" y="-190" as="sourcePoint" />
            <mxPoint x="170" y="-100" as="targetPoint" />
          </mxGeometry>
        </mxCell>
        <mxCell id="vRHnc0UXpG35BtiOM5nM-16" value="&lt;b&gt;Get the number of sites to visit per day&lt;/b&gt;" style="rounded=0;whiteSpace=wrap;html=1;fillColor=#fff2cc;strokeColor=#d6b656;" parent="WIyWlLk6GJQsqaUBKTNV-1" vertex="1">
          <mxGeometry x="90" y="-170" width="160" height="40" as="geometry" />
        </mxCell>
        <mxCell id="vRHnc0UXpG35BtiOM5nM-18" value="&lt;b&gt;Get the sites that go towards the chosen cardinal direction&lt;/b&gt;" style="rounded=0;whiteSpace=wrap;html=1;fillColor=#f5f5f5;fontColor=#333333;strokeColor=#666666;" parent="WIyWlLk6GJQsqaUBKTNV-1" vertex="1">
          <mxGeometry x="636" y="-240" width="210" height="60" as="geometry" />
        </mxCell>
        <mxCell id="vRHnc0UXpG35BtiOM5nM-22" value="Repeat until condition is true" style="text;html=1;strokeColor=none;fillColor=none;align=center;verticalAlign=middle;whiteSpace=wrap;rounded=0;" parent="WIyWlLk6GJQsqaUBKTNV-1" vertex="1">
          <mxGeometry x="414" y="160" width="270" height="30" as="geometry" />
        </mxCell>
        <mxCell id="vRHnc0UXpG35BtiOM5nM-23" value="&lt;b&gt;Nearest Neighbor Algorithm&lt;/b&gt;" style="rounded=0;whiteSpace=wrap;html=1;fillColor=#e1d5e7;strokeColor=#9673a6;" parent="WIyWlLk6GJQsqaUBKTNV-1" vertex="1">
          <mxGeometry x="890" y="-60" width="210" height="60" as="geometry" />
        </mxCell>
        <mxCell id="vRHnc0UXpG35BtiOM5nM-24" value="&lt;b&gt;Among these get the nearest neighbor to the last visited site&lt;/b&gt;" style="rounded=0;whiteSpace=wrap;html=1;fillColor=#f5f5f5;fontColor=#333333;strokeColor=#666666;" parent="WIyWlLk6GJQsqaUBKTNV-1" vertex="1">
          <mxGeometry x="636.01" y="-60" width="210" height="60" as="geometry" />
        </mxCell>
        <mxCell id="vRHnc0UXpG35BtiOM5nM-25" value="" style="endArrow=classic;html=1;rounded=0;entryX=0.5;entryY=0;entryDx=0;entryDy=0;exitX=0.5;exitY=1;exitDx=0;exitDy=0;" parent="WIyWlLk6GJQsqaUBKTNV-1" source="vRHnc0UXpG35BtiOM5nM-27" target="vRHnc0UXpG35BtiOM5nM-26" edge="1">
          <mxGeometry width="50" height="50" relative="1" as="geometry">
            <mxPoint x="576" y="120" as="sourcePoint" />
            <mxPoint x="746" y="-30" as="targetPoint" />
          </mxGeometry>
        </mxCell>
        <mxCell id="vRHnc0UXpG35BtiOM5nM-26" value="&lt;b&gt;Get the sites heading back towards the origin point&lt;/b&gt;" style="rounded=0;whiteSpace=wrap;html=1;fillColor=#f5f5f5;fontColor=#333333;strokeColor=#666666;" parent="WIyWlLk6GJQsqaUBKTNV-1" vertex="1">
          <mxGeometry x="651.01" y="230" width="180" height="60" as="geometry" />
        </mxCell>
        <mxCell id="vRHnc0UXpG35BtiOM5nM-28" value="" style="endArrow=classic;html=1;rounded=0;entryX=0.5;entryY=0;entryDx=0;entryDy=0;exitX=0.5;exitY=1;exitDx=0;exitDy=0;" parent="WIyWlLk6GJQsqaUBKTNV-1" source="vRHnc0UXpG35BtiOM5nM-29" target="vRHnc0UXpG35BtiOM5nM-27" edge="1">
          <mxGeometry width="50" height="50" relative="1" as="geometry">
            <mxPoint x="741" y="-60" as="sourcePoint" />
            <mxPoint x="741" y="90" as="targetPoint" />
          </mxGeometry>
        </mxCell>
        <mxCell id="vRHnc0UXpG35BtiOM5nM-27" value="&lt;b&gt;We have half of the sites for the day&lt;/b&gt;" style="rhombus;whiteSpace=wrap;html=1;fillColor=#ffe6cc;strokeColor=#d79b00;" parent="WIyWlLk6GJQsqaUBKTNV-1" vertex="1">
          <mxGeometry x="626" y="100" width="230" height="100" as="geometry" />
        </mxCell>
        <mxCell id="vRHnc0UXpG35BtiOM5nM-30" value="Yes" style="text;html=1;strokeColor=none;fillColor=none;align=center;verticalAlign=middle;whiteSpace=wrap;rounded=0;" parent="WIyWlLk6GJQsqaUBKTNV-1" vertex="1">
          <mxGeometry x="684" y="190" width="60" height="30" as="geometry" />
        </mxCell>
        <mxCell id="vRHnc0UXpG35BtiOM5nM-31" value="No" style="text;html=1;strokeColor=none;fillColor=none;align=center;verticalAlign=middle;whiteSpace=wrap;rounded=0;" parent="WIyWlLk6GJQsqaUBKTNV-1" vertex="1">
          <mxGeometry x="591.01" y="120" width="60" height="30" as="geometry" />
        </mxCell>
        <mxCell id="vRHnc0UXpG35BtiOM5nM-32" value="" style="endArrow=classic;html=1;rounded=0;exitX=0;exitY=0.5;exitDx=0;exitDy=0;entryX=0;entryY=0.5;entryDx=0;entryDy=0;" parent="WIyWlLk6GJQsqaUBKTNV-1" source="vRHnc0UXpG35BtiOM5nM-27" target="vRHnc0UXpG35BtiOM5nM-18" edge="1">
          <mxGeometry width="50" height="50" relative="1" as="geometry">
            <mxPoint x="576" y="120" as="sourcePoint" />
            <mxPoint x="626" y="70" as="targetPoint" />
            <Array as="points">
              <mxPoint x="586" y="150" />
              <mxPoint x="586" y="-210" />
            </Array>
          </mxGeometry>
        </mxCell>
        <mxCell id="vRHnc0UXpG35BtiOM5nM-33" value="&lt;b&gt;Among these get the site closest to either the last site visited or to the point of origin&lt;/b&gt;" style="rounded=0;whiteSpace=wrap;html=1;fillColor=#f5f5f5;fontColor=#333333;strokeColor=#666666;" parent="WIyWlLk6GJQsqaUBKTNV-1" vertex="1">
          <mxGeometry x="605.13" y="430" width="271.75" height="60" as="geometry" />
        </mxCell>
        <mxCell id="vRHnc0UXpG35BtiOM5nM-35" value="" style="endArrow=classic;html=1;rounded=0;entryX=0.5;entryY=0;entryDx=0;entryDy=0;exitX=0.5;exitY=1;exitDx=0;exitDy=0;" parent="WIyWlLk6GJQsqaUBKTNV-1" target="vRHnc0UXpG35BtiOM5nM-33" edge="1" source="76HgDoiX1F_R5RpYLCO4-0">
          <mxGeometry width="50" height="50" relative="1" as="geometry">
            <mxPoint x="740.74" y="260" as="sourcePoint" />
            <mxPoint x="740.74" y="290" as="targetPoint" />
          </mxGeometry>
        </mxCell>
        <mxCell id="vRHnc0UXpG35BtiOM5nM-36" value="&lt;b&gt;We have all of the sites for the day&lt;/b&gt;" style="rhombus;whiteSpace=wrap;html=1;fillColor=#ffe6cc;strokeColor=#d79b00;" parent="WIyWlLk6GJQsqaUBKTNV-1" vertex="1">
          <mxGeometry x="626.01" y="585" width="230" height="100" as="geometry" />
        </mxCell>
        <mxCell id="vRHnc0UXpG35BtiOM5nM-37" value="" style="endArrow=classic;html=1;rounded=0;exitX=0;exitY=0.5;exitDx=0;exitDy=0;entryX=0;entryY=0.5;entryDx=0;entryDy=0;" parent="WIyWlLk6GJQsqaUBKTNV-1" source="vRHnc0UXpG35BtiOM5nM-36" target="vRHnc0UXpG35BtiOM5nM-26" edge="1">
          <mxGeometry width="50" height="50" relative="1" as="geometry">
            <mxPoint x="636" y="130" as="sourcePoint" />
            <mxPoint x="646" y="-160" as="targetPoint" />
            <Array as="points">
              <mxPoint x="586" y="635" />
              <mxPoint x="586" y="260" />
            </Array>
          </mxGeometry>
        </mxCell>
        <mxCell id="vRHnc0UXpG35BtiOM5nM-38" value="No" style="text;html=1;strokeColor=none;fillColor=none;align=center;verticalAlign=middle;whiteSpace=wrap;rounded=0;" parent="WIyWlLk6GJQsqaUBKTNV-1" vertex="1">
          <mxGeometry x="591.01" y="600" width="60" height="30" as="geometry" />
        </mxCell>
        <mxCell id="vRHnc0UXpG35BtiOM5nM-39" value="Yes" style="text;html=1;strokeColor=none;fillColor=none;align=center;verticalAlign=middle;whiteSpace=wrap;rounded=0;" parent="WIyWlLk6GJQsqaUBKTNV-1" vertex="1">
          <mxGeometry x="680" y="670" width="60" height="30" as="geometry" />
        </mxCell>
        <mxCell id="vRHnc0UXpG35BtiOM5nM-40" value="Repeat until condition is true" style="text;html=1;strokeColor=none;fillColor=none;align=center;verticalAlign=middle;whiteSpace=wrap;rounded=0;" parent="WIyWlLk6GJQsqaUBKTNV-1" vertex="1">
          <mxGeometry x="480" y="640" width="171.01" height="30" as="geometry" />
        </mxCell>
        <mxCell id="vRHnc0UXpG35BtiOM5nM-44" value="" style="endArrow=classic;html=1;rounded=0;exitX=0.5;exitY=1;exitDx=0;exitDy=0;entryX=0.5;entryY=0;entryDx=0;entryDy=0;" parent="WIyWlLk6GJQsqaUBKTNV-1" source="vRHnc0UXpG35BtiOM5nM-36" target="vRHnc0UXpG35BtiOM5nM-46" edge="1">
          <mxGeometry width="50" height="50" relative="1" as="geometry">
            <mxPoint x="741" y="470" as="sourcePoint" />
            <mxPoint x="743.5" y="500" as="targetPoint" />
          </mxGeometry>
        </mxCell>
        <mxCell id="vRHnc0UXpG35BtiOM5nM-46" value="&lt;b&gt;Move to next day&lt;/b&gt;" style="rounded=0;whiteSpace=wrap;html=1;" parent="WIyWlLk6GJQsqaUBKTNV-1" vertex="1">
          <mxGeometry x="681.01" y="700" width="120" height="60" as="geometry" />
        </mxCell>
        <mxCell id="vRHnc0UXpG35BtiOM5nM-47" value="&lt;b&gt;Add this site to the trip of the day&lt;/b&gt;" style="rounded=0;whiteSpace=wrap;html=1;fillColor=#f5f5f5;fontColor=#333333;strokeColor=#666666;" parent="WIyWlLk6GJQsqaUBKTNV-1" vertex="1">
          <mxGeometry x="636" y="510" width="210" height="60" as="geometry" />
        </mxCell>
        <mxCell id="vRHnc0UXpG35BtiOM5nM-49" value="" style="endArrow=classic;html=1;rounded=0;exitX=0.5;exitY=1;exitDx=0;exitDy=0;entryX=0.5;entryY=0;entryDx=0;entryDy=0;" parent="WIyWlLk6GJQsqaUBKTNV-1" source="vRHnc0UXpG35BtiOM5nM-47" target="vRHnc0UXpG35BtiOM5nM-36" edge="1">
          <mxGeometry width="50" height="50" relative="1" as="geometry">
            <mxPoint x="230" y="500" as="sourcePoint" />
            <mxPoint x="280" y="450" as="targetPoint" />
          </mxGeometry>
        </mxCell>
        <mxCell id="vRHnc0UXpG35BtiOM5nM-51" value="&lt;b&gt;We have a trip for every day&lt;/b&gt;" style="rhombus;whiteSpace=wrap;html=1;fillColor=#ffe6cc;strokeColor=#d79b00;" parent="WIyWlLk6GJQsqaUBKTNV-1" vertex="1">
          <mxGeometry x="55" y="150" width="230" height="100" as="geometry" />
        </mxCell>
        <mxCell id="vRHnc0UXpG35BtiOM5nM-52" value="" style="endArrow=classic;html=1;rounded=0;exitX=0.5;exitY=1;exitDx=0;exitDy=0;entryX=0.5;entryY=0;entryDx=0;entryDy=0;" parent="WIyWlLk6GJQsqaUBKTNV-1" source="vRHnc0UXpG35BtiOM5nM-8" target="vRHnc0UXpG35BtiOM5nM-51" edge="1">
          <mxGeometry width="50" height="50" relative="1" as="geometry">
            <mxPoint x="70" y="90" as="sourcePoint" />
            <mxPoint x="120" y="40" as="targetPoint" />
          </mxGeometry>
        </mxCell>
        <mxCell id="vRHnc0UXpG35BtiOM5nM-53" value="&lt;b&gt;End&lt;/b&gt;" style="rounded=0;whiteSpace=wrap;html=1;" parent="WIyWlLk6GJQsqaUBKTNV-1" vertex="1">
          <mxGeometry x="110" y="280" width="120" height="60" as="geometry" />
        </mxCell>
        <mxCell id="vRHnc0UXpG35BtiOM5nM-54" value="Yes" style="text;html=1;strokeColor=none;fillColor=none;align=center;verticalAlign=middle;whiteSpace=wrap;rounded=0;" parent="WIyWlLk6GJQsqaUBKTNV-1" vertex="1">
          <mxGeometry x="110" y="245" width="60" height="30" as="geometry" />
        </mxCell>
        <mxCell id="vRHnc0UXpG35BtiOM5nM-55" value="No" style="text;html=1;strokeColor=none;fillColor=none;align=center;verticalAlign=middle;whiteSpace=wrap;rounded=0;" parent="WIyWlLk6GJQsqaUBKTNV-1" vertex="1">
          <mxGeometry x="50" y="160" width="60" height="30" as="geometry" />
        </mxCell>
        <mxCell id="vRHnc0UXpG35BtiOM5nM-56" value="Repeat until condition is true" style="text;html=1;strokeColor=none;fillColor=none;align=center;verticalAlign=middle;whiteSpace=wrap;rounded=0;" parent="WIyWlLk6GJQsqaUBKTNV-1" vertex="1">
          <mxGeometry x="-120" y="215" width="270" height="30" as="geometry" />
        </mxCell>
        <mxCell id="vRHnc0UXpG35BtiOM5nM-57" value="" style="endArrow=classic;html=1;rounded=0;exitX=0.5;exitY=1;exitDx=0;exitDy=0;entryX=0.5;entryY=0;entryDx=0;entryDy=0;" parent="WIyWlLk6GJQsqaUBKTNV-1" source="vRHnc0UXpG35BtiOM5nM-7" target="vRHnc0UXpG35BtiOM5nM-13" edge="1">
          <mxGeometry width="50" height="50" relative="1" as="geometry">
            <mxPoint x="160" y="120" as="sourcePoint" />
            <mxPoint x="210" y="70" as="targetPoint" />
          </mxGeometry>
        </mxCell>
        <mxCell id="vRHnc0UXpG35BtiOM5nM-58" value="" style="endArrow=classic;html=1;rounded=0;exitX=1;exitY=0.25;exitDx=0;exitDy=0;entryX=0.5;entryY=0;entryDx=0;entryDy=0;" parent="WIyWlLk6GJQsqaUBKTNV-1" source="vRHnc0UXpG35BtiOM5nM-54" target="vRHnc0UXpG35BtiOM5nM-53" edge="1">
          <mxGeometry width="50" height="50" relative="1" as="geometry">
            <mxPoint x="160" y="300" as="sourcePoint" />
            <mxPoint x="210" y="250" as="targetPoint" />
          </mxGeometry>
        </mxCell>
        <mxCell id="vRHnc0UXpG35BtiOM5nM-59" value="&lt;b&gt;Nearest Insertion between the last visited site and the origin point&lt;/b&gt;" style="rounded=0;whiteSpace=wrap;html=1;fillColor=#e1d5e7;strokeColor=#9673a6;" parent="WIyWlLk6GJQsqaUBKTNV-1" vertex="1">
          <mxGeometry x="910" y="430" width="271.75" height="60" as="geometry" />
        </mxCell>
        <mxCell id="vRHnc0UXpG35BtiOM5nM-60" value="" style="endArrow=classic;html=1;rounded=0;exitX=0.5;exitY=1;exitDx=0;exitDy=0;entryX=0.5;entryY=0;entryDx=0;entryDy=0;" parent="WIyWlLk6GJQsqaUBKTNV-1" source="vRHnc0UXpG35BtiOM5nM-33" target="vRHnc0UXpG35BtiOM5nM-47" edge="1">
          <mxGeometry width="50" height="50" relative="1" as="geometry">
            <mxPoint x="751" y="440" as="sourcePoint" />
            <mxPoint x="751" y="460" as="targetPoint" />
          </mxGeometry>
        </mxCell>
        <mxCell id="76HgDoiX1F_R5RpYLCO4-1" value="" style="endArrow=classic;html=1;rounded=0;entryX=0.5;entryY=0;entryDx=0;entryDy=0;exitX=0.5;exitY=1;exitDx=0;exitDy=0;" edge="1" parent="WIyWlLk6GJQsqaUBKTNV-1" source="vRHnc0UXpG35BtiOM5nM-26" target="76HgDoiX1F_R5RpYLCO4-0">
          <mxGeometry width="50" height="50" relative="1" as="geometry">
            <mxPoint x="740.74" y="260" as="sourcePoint" />
            <mxPoint x="741" y="370" as="targetPoint" />
          </mxGeometry>
        </mxCell>
        <mxCell id="76HgDoiX1F_R5RpYLCO4-0" value="&lt;b&gt;We have atleast one site in that direction&lt;/b&gt;" style="rhombus;whiteSpace=wrap;html=1;fillColor=#ffe6cc;strokeColor=#d79b00;" vertex="1" parent="WIyWlLk6GJQsqaUBKTNV-1">
          <mxGeometry x="613" y="310" width="256.01" height="100" as="geometry" />
        </mxCell>
        <mxCell id="76HgDoiX1F_R5RpYLCO4-2" value="Change the direction to the opposite of the one at the start" style="rounded=0;whiteSpace=wrap;html=1;fillColor=#f5f5f5;fontColor=#333333;strokeColor=#666666;" vertex="1" parent="WIyWlLk6GJQsqaUBKTNV-1">
          <mxGeometry x="950" y="330" width="170" height="60" as="geometry" />
        </mxCell>
        <mxCell id="76HgDoiX1F_R5RpYLCO4-5" value="Change the direction to the opposite of the one at the start" style="rounded=0;whiteSpace=wrap;html=1;fillColor=#f5f5f5;fontColor=#333333;strokeColor=#666666;" vertex="1" parent="WIyWlLk6GJQsqaUBKTNV-1">
          <mxGeometry x="910" y="-150" width="170" height="60" as="geometry" />
        </mxCell>
        <mxCell id="76HgDoiX1F_R5RpYLCO4-6" value="" style="endArrow=classic;html=1;rounded=0;entryX=0.5;entryY=0;entryDx=0;entryDy=0;exitX=0.5;exitY=1;exitDx=0;exitDy=0;" edge="1" parent="WIyWlLk6GJQsqaUBKTNV-1" source="vRHnc0UXpG35BtiOM5nM-24" target="vRHnc0UXpG35BtiOM5nM-29">
          <mxGeometry width="50" height="50" relative="1" as="geometry">
            <mxPoint x="741" y="-60" as="sourcePoint" />
            <mxPoint x="741" y="70" as="targetPoint" />
          </mxGeometry>
        </mxCell>
        <mxCell id="vRHnc0UXpG35BtiOM5nM-29" value="&lt;b&gt;Add this site to the trip of the day&lt;/b&gt;" style="rounded=0;whiteSpace=wrap;html=1;fillColor=#f5f5f5;fontColor=#333333;strokeColor=#666666;" parent="WIyWlLk6GJQsqaUBKTNV-1" vertex="1">
          <mxGeometry x="636" y="20" width="210" height="60" as="geometry" />
        </mxCell>
        <mxCell id="76HgDoiX1F_R5RpYLCO4-7" value="&lt;b&gt;We have atleast one site in that direction&lt;/b&gt;" style="rhombus;whiteSpace=wrap;html=1;fillColor=#ffe6cc;strokeColor=#d79b00;" vertex="1" parent="WIyWlLk6GJQsqaUBKTNV-1">
          <mxGeometry x="613" y="-170" width="256.01" height="100" as="geometry" />
        </mxCell>
        <mxCell id="76HgDoiX1F_R5RpYLCO4-8" value="" style="endArrow=classic;html=1;rounded=0;exitX=0.5;exitY=1;exitDx=0;exitDy=0;entryX=0.5;entryY=0;entryDx=0;entryDy=0;" edge="1" parent="WIyWlLk6GJQsqaUBKTNV-1" source="vRHnc0UXpG35BtiOM5nM-18" target="76HgDoiX1F_R5RpYLCO4-7">
          <mxGeometry width="50" height="50" relative="1" as="geometry">
            <mxPoint x="780" y="-140" as="sourcePoint" />
            <mxPoint x="830" y="-190" as="targetPoint" />
          </mxGeometry>
        </mxCell>
        <mxCell id="76HgDoiX1F_R5RpYLCO4-9" value="" style="endArrow=classic;html=1;rounded=0;exitX=0.5;exitY=1;exitDx=0;exitDy=0;entryX=0.5;entryY=0;entryDx=0;entryDy=0;" edge="1" parent="WIyWlLk6GJQsqaUBKTNV-1" source="76HgDoiX1F_R5RpYLCO4-7" target="vRHnc0UXpG35BtiOM5nM-24">
          <mxGeometry width="50" height="50" relative="1" as="geometry">
            <mxPoint x="780" y="-140" as="sourcePoint" />
            <mxPoint x="830" y="-190" as="targetPoint" />
          </mxGeometry>
        </mxCell>
        <mxCell id="76HgDoiX1F_R5RpYLCO4-10" value="" style="endArrow=classic;html=1;rounded=0;exitX=1;exitY=0.5;exitDx=0;exitDy=0;entryX=0;entryY=0.5;entryDx=0;entryDy=0;" edge="1" parent="WIyWlLk6GJQsqaUBKTNV-1" source="76HgDoiX1F_R5RpYLCO4-7" target="76HgDoiX1F_R5RpYLCO4-5">
          <mxGeometry width="50" height="50" relative="1" as="geometry">
            <mxPoint x="780" y="-140" as="sourcePoint" />
            <mxPoint x="830" y="-190" as="targetPoint" />
          </mxGeometry>
        </mxCell>
        <mxCell id="76HgDoiX1F_R5RpYLCO4-11" value="" style="endArrow=classic;html=1;rounded=0;exitX=1;exitY=0.5;exitDx=0;exitDy=0;entryX=0;entryY=0.5;entryDx=0;entryDy=0;" edge="1" parent="WIyWlLk6GJQsqaUBKTNV-1" source="76HgDoiX1F_R5RpYLCO4-0" target="76HgDoiX1F_R5RpYLCO4-2">
          <mxGeometry width="50" height="50" relative="1" as="geometry">
            <mxPoint x="780" y="400" as="sourcePoint" />
            <mxPoint x="830" y="350" as="targetPoint" />
          </mxGeometry>
        </mxCell>
        <mxCell id="76HgDoiX1F_R5RpYLCO4-12" value="Yes" style="text;html=1;strokeColor=none;fillColor=none;align=center;verticalAlign=middle;whiteSpace=wrap;rounded=0;" vertex="1" parent="WIyWlLk6GJQsqaUBKTNV-1">
          <mxGeometry x="684" y="400" width="60" height="30" as="geometry" />
        </mxCell>
        <mxCell id="76HgDoiX1F_R5RpYLCO4-13" value="No" style="text;html=1;strokeColor=none;fillColor=none;align=center;verticalAlign=middle;whiteSpace=wrap;rounded=0;" vertex="1" parent="WIyWlLk6GJQsqaUBKTNV-1">
          <mxGeometry x="840" y="330" width="60" height="30" as="geometry" />
        </mxCell>
        <mxCell id="76HgDoiX1F_R5RpYLCO4-14" value="No" style="text;html=1;strokeColor=none;fillColor=none;align=center;verticalAlign=middle;whiteSpace=wrap;rounded=0;" vertex="1" parent="WIyWlLk6GJQsqaUBKTNV-1">
          <mxGeometry x="840" y="-150" width="60" height="30" as="geometry" />
        </mxCell>
        <mxCell id="76HgDoiX1F_R5RpYLCO4-15" value="Yes" style="text;html=1;strokeColor=none;fillColor=none;align=center;verticalAlign=middle;whiteSpace=wrap;rounded=0;" vertex="1" parent="WIyWlLk6GJQsqaUBKTNV-1">
          <mxGeometry x="684" y="-85" width="60" height="30" as="geometry" />
        </mxCell>
        <mxCell id="76HgDoiX1F_R5RpYLCO4-16" value="" style="rounded=0;whiteSpace=wrap;html=1;" vertex="1" parent="WIyWlLk6GJQsqaUBKTNV-1">
          <mxGeometry x="280" y="890" width="660" height="470" as="geometry" />
        </mxCell>
        <mxCell id="76HgDoiX1F_R5RpYLCO4-23" value="" style="rounded=0;whiteSpace=wrap;html=1;fillColor=#f5f5f5;fontColor=#333333;strokeColor=#666666;" vertex="1" parent="WIyWlLk6GJQsqaUBKTNV-1">
          <mxGeometry x="470" y="1080" width="270" height="210" as="geometry" />
        </mxCell>
        <mxCell id="76HgDoiX1F_R5RpYLCO4-25" value="" style="rounded=0;whiteSpace=wrap;html=1;fillColor=#f5f5f5;fontColor=#333333;strokeColor=#666666;" vertex="1" parent="WIyWlLk6GJQsqaUBKTNV-1">
          <mxGeometry x="1300" y="820" width="270" height="210" as="geometry" />
        </mxCell>
        <mxCell id="76HgDoiX1F_R5RpYLCO4-21" value="&lt;b&gt;Site 1&lt;/b&gt;" style="ellipse;whiteSpace=wrap;html=1;" vertex="1" parent="WIyWlLk6GJQsqaUBKTNV-1">
          <mxGeometry x="523.03" y="1100" width="67.98" height="69" as="geometry" />
        </mxCell>
        <mxCell id="76HgDoiX1F_R5RpYLCO4-20" value="&lt;b&gt;Origin&lt;/b&gt;" style="ellipse;whiteSpace=wrap;html=1;" vertex="1" parent="WIyWlLk6GJQsqaUBKTNV-1">
          <mxGeometry x="568.02" y="1250" width="67.98" height="69" as="geometry" />
        </mxCell>
        <mxCell id="76HgDoiX1F_R5RpYLCO4-24" value="Range 25 km" style="text;html=1;strokeColor=none;fillColor=none;align=center;verticalAlign=middle;whiteSpace=wrap;rounded=0;" vertex="1" parent="WIyWlLk6GJQsqaUBKTNV-1">
          <mxGeometry x="373" y="1139" width="80" height="30" as="geometry" />
        </mxCell>
        <mxCell id="76HgDoiX1F_R5RpYLCO4-42" value="" style="rounded=0;whiteSpace=wrap;html=1;" vertex="1" parent="WIyWlLk6GJQsqaUBKTNV-1">
          <mxGeometry x="280" y="1720" width="660" height="540" as="geometry" />
        </mxCell>
        <mxCell id="76HgDoiX1F_R5RpYLCO4-43" value="" style="rounded=0;whiteSpace=wrap;html=1;fillColor=#f5f5f5;fontColor=#333333;strokeColor=#666666;" vertex="1" parent="WIyWlLk6GJQsqaUBKTNV-1">
          <mxGeometry x="422.02" y="1809" width="270" height="210" as="geometry" />
        </mxCell>
        <mxCell id="76HgDoiX1F_R5RpYLCO4-44" value="&lt;b&gt;Site 1&lt;/b&gt;" style="ellipse;whiteSpace=wrap;html=1;" vertex="1" parent="WIyWlLk6GJQsqaUBKTNV-1">
          <mxGeometry x="523.03" y="1980" width="67.98" height="69" as="geometry" />
        </mxCell>
        <mxCell id="76HgDoiX1F_R5RpYLCO4-45" value="&lt;b&gt;Origin&lt;/b&gt;" style="ellipse;whiteSpace=wrap;html=1;" vertex="1" parent="WIyWlLk6GJQsqaUBKTNV-1">
          <mxGeometry x="568.02" y="2130" width="67.98" height="69" as="geometry" />
        </mxCell>
        <mxCell id="76HgDoiX1F_R5RpYLCO4-46" value="Range 25 km" style="text;html=1;strokeColor=none;fillColor=none;align=center;verticalAlign=middle;whiteSpace=wrap;rounded=0;" vertex="1" parent="WIyWlLk6GJQsqaUBKTNV-1">
          <mxGeometry x="317.01" y="1910" width="80" height="30" as="geometry" />
        </mxCell>
        <mxCell id="76HgDoiX1F_R5RpYLCO4-47" value="" style="endArrow=classic;html=1;rounded=0;exitX=0.5;exitY=0;exitDx=0;exitDy=0;entryX=1;entryY=1;entryDx=0;entryDy=0;" edge="1" parent="WIyWlLk6GJQsqaUBKTNV-1" source="76HgDoiX1F_R5RpYLCO4-45" target="76HgDoiX1F_R5RpYLCO4-44">
          <mxGeometry width="50" height="50" relative="1" as="geometry">
            <mxPoint x="620" y="2020" as="sourcePoint" />
            <mxPoint x="560" y="2040" as="targetPoint" />
          </mxGeometry>
        </mxCell>
        <mxCell id="76HgDoiX1F_R5RpYLCO4-48" value="&lt;b&gt;Site 2&lt;/b&gt;" style="ellipse;whiteSpace=wrap;html=1;" vertex="1" parent="WIyWlLk6GJQsqaUBKTNV-1">
          <mxGeometry x="651.01" y="1930" width="67.98" height="69" as="geometry" />
        </mxCell>
        <mxCell id="76HgDoiX1F_R5RpYLCO4-50" value="" style="rounded=0;whiteSpace=wrap;html=1;" vertex="1" parent="WIyWlLk6GJQsqaUBKTNV-1">
          <mxGeometry x="280" y="2770" width="660" height="400" as="geometry" />
        </mxCell>
        <mxCell id="76HgDoiX1F_R5RpYLCO4-51" value="" style="rounded=0;whiteSpace=wrap;html=1;fillColor=#f5f5f5;fontColor=#333333;strokeColor=#666666;" vertex="1" parent="WIyWlLk6GJQsqaUBKTNV-1">
          <mxGeometry x="599.01" y="2860" width="100.99" height="210" as="geometry" />
        </mxCell>
        <mxCell id="76HgDoiX1F_R5RpYLCO4-52" value="&lt;b&gt;Site 1&lt;/b&gt;" style="ellipse;whiteSpace=wrap;html=1;" vertex="1" parent="WIyWlLk6GJQsqaUBKTNV-1">
          <mxGeometry x="523.03" y="2870" width="67.98" height="69" as="geometry" />
        </mxCell>
        <mxCell id="76HgDoiX1F_R5RpYLCO4-53" value="&lt;b&gt;Origin&lt;/b&gt;" style="ellipse;whiteSpace=wrap;html=1;" vertex="1" parent="WIyWlLk6GJQsqaUBKTNV-1">
          <mxGeometry x="568.02" y="3020" width="67.98" height="69" as="geometry" />
        </mxCell>
        <mxCell id="76HgDoiX1F_R5RpYLCO4-55" value="" style="endArrow=classic;html=1;rounded=0;exitX=0.5;exitY=0;exitDx=0;exitDy=0;entryX=1;entryY=1;entryDx=0;entryDy=0;" edge="1" parent="WIyWlLk6GJQsqaUBKTNV-1" source="76HgDoiX1F_R5RpYLCO4-53" target="76HgDoiX1F_R5RpYLCO4-52">
          <mxGeometry width="50" height="50" relative="1" as="geometry">
            <mxPoint x="620" y="2910" as="sourcePoint" />
            <mxPoint x="560" y="2930" as="targetPoint" />
          </mxGeometry>
        </mxCell>
        <mxCell id="76HgDoiX1F_R5RpYLCO4-56" value="&lt;b&gt;Site 2&lt;/b&gt;" style="ellipse;whiteSpace=wrap;html=1;" vertex="1" parent="WIyWlLk6GJQsqaUBKTNV-1">
          <mxGeometry x="660" y="2810" width="67.98" height="69" as="geometry" />
        </mxCell>
        <mxCell id="76HgDoiX1F_R5RpYLCO4-57" value="" style="endArrow=classic;html=1;rounded=0;exitX=1;exitY=0;exitDx=0;exitDy=0;entryX=0;entryY=0.5;entryDx=0;entryDy=0;" edge="1" parent="WIyWlLk6GJQsqaUBKTNV-1" source="76HgDoiX1F_R5RpYLCO4-52" target="76HgDoiX1F_R5RpYLCO4-56">
          <mxGeometry width="50" height="50" relative="1" as="geometry">
            <mxPoint x="540" y="2870" as="sourcePoint" />
            <mxPoint x="590" y="2820" as="targetPoint" />
          </mxGeometry>
        </mxCell>
        <mxCell id="76HgDoiX1F_R5RpYLCO4-58" value="&lt;b&gt;Site 4&lt;/b&gt;" style="ellipse;whiteSpace=wrap;html=1;" vertex="1" parent="WIyWlLk6GJQsqaUBKTNV-1">
          <mxGeometry x="651.01" y="3000.5" width="67.98" height="69" as="geometry" />
        </mxCell>
        <mxCell id="76HgDoiX1F_R5RpYLCO4-59" value="" style="endArrow=classic;html=1;rounded=0;entryX=1;entryY=0.5;entryDx=0;entryDy=0;exitX=0.055;exitY=0.71;exitDx=0;exitDy=0;exitPerimeter=0;" edge="1" parent="WIyWlLk6GJQsqaUBKTNV-1" source="76HgDoiX1F_R5RpYLCO4-58" target="76HgDoiX1F_R5RpYLCO4-53">
          <mxGeometry width="50" height="50" relative="1" as="geometry">
            <mxPoint x="540" y="2870" as="sourcePoint" />
            <mxPoint x="590" y="2820" as="targetPoint" />
          </mxGeometry>
        </mxCell>
        <mxCell id="76HgDoiX1F_R5RpYLCO4-60" value="" style="rounded=0;whiteSpace=wrap;html=1;" vertex="1" parent="WIyWlLk6GJQsqaUBKTNV-1">
          <mxGeometry x="9" y="3520" width="1161" height="850" as="geometry" />
        </mxCell>
        <mxCell id="76HgDoiX1F_R5RpYLCO4-62" value="&lt;b&gt;Site 1&lt;/b&gt;" style="ellipse;whiteSpace=wrap;html=1;" vertex="1" parent="WIyWlLk6GJQsqaUBKTNV-1">
          <mxGeometry x="523.03" y="3780" width="67.98" height="69" as="geometry" />
        </mxCell>
        <mxCell id="76HgDoiX1F_R5RpYLCO4-63" value="&lt;b&gt;Origin&lt;/b&gt;" style="ellipse;whiteSpace=wrap;html=1;" vertex="1" parent="WIyWlLk6GJQsqaUBKTNV-1">
          <mxGeometry x="568.02" y="3930" width="67.98" height="69" as="geometry" />
        </mxCell>
        <mxCell id="76HgDoiX1F_R5RpYLCO4-64" value="Range 25 km" style="text;html=1;strokeColor=none;fillColor=none;align=center;verticalAlign=middle;whiteSpace=wrap;rounded=0;" vertex="1" parent="WIyWlLk6GJQsqaUBKTNV-1">
          <mxGeometry x="317.01" y="3710" width="80" height="30" as="geometry" />
        </mxCell>
        <mxCell id="76HgDoiX1F_R5RpYLCO4-65" value="" style="endArrow=classic;html=1;rounded=0;exitX=0.5;exitY=0;exitDx=0;exitDy=0;entryX=1;entryY=1;entryDx=0;entryDy=0;" edge="1" parent="WIyWlLk6GJQsqaUBKTNV-1" source="76HgDoiX1F_R5RpYLCO4-63" target="76HgDoiX1F_R5RpYLCO4-62">
          <mxGeometry width="50" height="50" relative="1" as="geometry">
            <mxPoint x="620" y="3820" as="sourcePoint" />
            <mxPoint x="560" y="3840" as="targetPoint" />
          </mxGeometry>
        </mxCell>
        <mxCell id="76HgDoiX1F_R5RpYLCO4-66" value="&lt;b&gt;Site 2&lt;/b&gt;" style="ellipse;whiteSpace=wrap;html=1;" vertex="1" parent="WIyWlLk6GJQsqaUBKTNV-1">
          <mxGeometry x="651.01" y="3730" width="67.98" height="69" as="geometry" />
        </mxCell>
        <mxCell id="76HgDoiX1F_R5RpYLCO4-67" value="" style="endArrow=classic;html=1;rounded=0;exitX=1;exitY=0;exitDx=0;exitDy=0;entryX=0;entryY=0.5;entryDx=0;entryDy=0;" edge="1" parent="WIyWlLk6GJQsqaUBKTNV-1" source="76HgDoiX1F_R5RpYLCO4-62" target="76HgDoiX1F_R5RpYLCO4-66">
          <mxGeometry width="50" height="50" relative="1" as="geometry">
            <mxPoint x="540" y="3780" as="sourcePoint" />
            <mxPoint x="590" y="3730" as="targetPoint" />
          </mxGeometry>
        </mxCell>
        <mxCell id="76HgDoiX1F_R5RpYLCO4-68" value="&lt;b&gt;Site 4&lt;/b&gt;" style="ellipse;whiteSpace=wrap;html=1;" vertex="1" parent="WIyWlLk6GJQsqaUBKTNV-1">
          <mxGeometry x="651.01" y="3910.5" width="67.98" height="69" as="geometry" />
        </mxCell>
        <mxCell id="76HgDoiX1F_R5RpYLCO4-69" value="" style="endArrow=classic;html=1;rounded=0;entryX=1;entryY=0.5;entryDx=0;entryDy=0;exitX=0.055;exitY=0.71;exitDx=0;exitDy=0;exitPerimeter=0;" edge="1" parent="WIyWlLk6GJQsqaUBKTNV-1" source="76HgDoiX1F_R5RpYLCO4-68" target="76HgDoiX1F_R5RpYLCO4-63">
          <mxGeometry width="50" height="50" relative="1" as="geometry">
            <mxPoint x="540" y="3780" as="sourcePoint" />
            <mxPoint x="590" y="3730" as="targetPoint" />
          </mxGeometry>
        </mxCell>
        <mxCell id="76HgDoiX1F_R5RpYLCO4-73" value="&lt;b&gt;Site 3&lt;/b&gt;" style="ellipse;whiteSpace=wrap;html=1;direction=south;" vertex="1" parent="WIyWlLk6GJQsqaUBKTNV-1">
          <mxGeometry x="639.49" y="2860.51" width="69" height="67.98" as="geometry" />
        </mxCell>
        <mxCell id="76HgDoiX1F_R5RpYLCO4-75" value="" style="endArrow=classic;html=1;rounded=0;exitX=0.408;exitY=0.982;exitDx=0;exitDy=0;entryX=0.584;entryY=0.006;entryDx=0;entryDy=0;entryPerimeter=0;exitPerimeter=0;" edge="1" parent="WIyWlLk6GJQsqaUBKTNV-1" source="76HgDoiX1F_R5RpYLCO4-66" target="76HgDoiX1F_R5RpYLCO4-72">
          <mxGeometry width="50" height="50" relative="1" as="geometry">
            <mxPoint x="686" y="3949" as="sourcePoint" />
            <mxPoint x="680" y="3820" as="targetPoint" />
          </mxGeometry>
        </mxCell>
        <mxCell id="76HgDoiX1F_R5RpYLCO4-77" value="" style="endArrow=classic;html=1;rounded=0;entryX=0;entryY=0;entryDx=0;entryDy=0;exitX=0.5;exitY=1;exitDx=0;exitDy=0;" edge="1" parent="WIyWlLk6GJQsqaUBKTNV-1" source="76HgDoiX1F_R5RpYLCO4-72" target="76HgDoiX1F_R5RpYLCO4-68">
          <mxGeometry width="50" height="50" relative="1" as="geometry">
            <mxPoint x="686" y="3949" as="sourcePoint" />
            <mxPoint x="646" y="3975" as="targetPoint" />
          </mxGeometry>
        </mxCell>
        <mxCell id="76HgDoiX1F_R5RpYLCO4-78" value="" style="rounded=0;whiteSpace=wrap;html=1;" vertex="1" parent="WIyWlLk6GJQsqaUBKTNV-1">
          <mxGeometry x="339.51" y="4110" width="620" height="410" as="geometry" />
        </mxCell>
        <mxCell id="76HgDoiX1F_R5RpYLCO4-79" value="&lt;b&gt;Site 1&lt;/b&gt;" style="ellipse;whiteSpace=wrap;html=1;" vertex="1" parent="WIyWlLk6GJQsqaUBKTNV-1">
          <mxGeometry x="522.54" y="4260" width="67.98" height="69" as="geometry" />
        </mxCell>
        <mxCell id="76HgDoiX1F_R5RpYLCO4-80" value="&lt;b&gt;Origin&lt;/b&gt;" style="ellipse;whiteSpace=wrap;html=1;" vertex="1" parent="WIyWlLk6GJQsqaUBKTNV-1">
          <mxGeometry x="567.53" y="4410" width="67.98" height="69" as="geometry" />
        </mxCell>
        <mxCell id="76HgDoiX1F_R5RpYLCO4-81" value="" style="endArrow=classic;html=1;rounded=0;exitX=0.5;exitY=0;exitDx=0;exitDy=0;entryX=1;entryY=1;entryDx=0;entryDy=0;" edge="1" parent="WIyWlLk6GJQsqaUBKTNV-1" source="76HgDoiX1F_R5RpYLCO4-80" target="76HgDoiX1F_R5RpYLCO4-79">
          <mxGeometry width="50" height="50" relative="1" as="geometry">
            <mxPoint x="619.51" y="4300" as="sourcePoint" />
            <mxPoint x="559.51" y="4320" as="targetPoint" />
          </mxGeometry>
        </mxCell>
        <mxCell id="76HgDoiX1F_R5RpYLCO4-82" value="&lt;b&gt;Site 2&lt;/b&gt;" style="ellipse;whiteSpace=wrap;html=1;" vertex="1" parent="WIyWlLk6GJQsqaUBKTNV-1">
          <mxGeometry x="650.52" y="4210" width="67.98" height="69" as="geometry" />
        </mxCell>
        <mxCell id="76HgDoiX1F_R5RpYLCO4-83" value="" style="endArrow=classic;html=1;rounded=0;exitX=1;exitY=0;exitDx=0;exitDy=0;entryX=0;entryY=0.5;entryDx=0;entryDy=0;" edge="1" parent="WIyWlLk6GJQsqaUBKTNV-1" source="76HgDoiX1F_R5RpYLCO4-79" target="76HgDoiX1F_R5RpYLCO4-82">
          <mxGeometry width="50" height="50" relative="1" as="geometry">
            <mxPoint x="539.51" y="4260" as="sourcePoint" />
            <mxPoint x="589.51" y="4210" as="targetPoint" />
          </mxGeometry>
        </mxCell>
        <mxCell id="76HgDoiX1F_R5RpYLCO4-84" value="&lt;b&gt;Site 4&lt;/b&gt;" style="ellipse;whiteSpace=wrap;html=1;" vertex="1" parent="WIyWlLk6GJQsqaUBKTNV-1">
          <mxGeometry x="671.53" y="4370" width="67.98" height="69" as="geometry" />
        </mxCell>
        <mxCell id="76HgDoiX1F_R5RpYLCO4-85" value="" style="endArrow=classic;html=1;rounded=0;entryX=1;entryY=0.5;entryDx=0;entryDy=0;exitX=0.33;exitY=0.969;exitDx=0;exitDy=0;exitPerimeter=0;" edge="1" parent="WIyWlLk6GJQsqaUBKTNV-1" source="76HgDoiX1F_R5RpYLCO4-86" target="76HgDoiX1F_R5RpYLCO4-80">
          <mxGeometry width="50" height="50" relative="1" as="geometry">
            <mxPoint x="539.51" y="4260" as="sourcePoint" />
            <mxPoint x="589.51" y="4210" as="targetPoint" />
          </mxGeometry>
        </mxCell>
        <mxCell id="76HgDoiX1F_R5RpYLCO4-86" value="&lt;b&gt;Site 3&lt;/b&gt;" style="ellipse;whiteSpace=wrap;html=1;" vertex="1" parent="WIyWlLk6GJQsqaUBKTNV-1">
          <mxGeometry x="635.52" y="4290" width="67.98" height="69" as="geometry" />
        </mxCell>
        <mxCell id="76HgDoiX1F_R5RpYLCO4-87" value="" style="endArrow=classic;html=1;rounded=0;exitX=0.408;exitY=0.982;exitDx=0;exitDy=0;entryX=0.5;entryY=0;entryDx=0;entryDy=0;exitPerimeter=0;" edge="1" parent="WIyWlLk6GJQsqaUBKTNV-1" source="76HgDoiX1F_R5RpYLCO4-82" target="76HgDoiX1F_R5RpYLCO4-84">
          <mxGeometry width="50" height="50" relative="1" as="geometry">
            <mxPoint x="685.51" y="4429" as="sourcePoint" />
            <mxPoint x="679.51" y="4300" as="targetPoint" />
          </mxGeometry>
        </mxCell>
        <mxCell id="76HgDoiX1F_R5RpYLCO4-88" value="" style="endArrow=classic;html=1;rounded=0;exitX=0.304;exitY=-0.009;exitDx=0;exitDy=0;exitPerimeter=0;" edge="1" parent="WIyWlLk6GJQsqaUBKTNV-1" source="76HgDoiX1F_R5RpYLCO4-84">
          <mxGeometry width="50" height="50" relative="1" as="geometry">
            <mxPoint x="685.51" y="4429" as="sourcePoint" />
            <mxPoint x="680" y="4360" as="targetPoint" />
          </mxGeometry>
        </mxCell>
      </root>
    </mxGraphModel>
  </diagram>
</mxfile>
